<svg width="60" height="60" viewBox="0 0 60 60" fill="none" xmlns="http://www.w3.org/2000/svg">
<path d="M23.1989 23.3051C22.6935 22.7519 21.9739 22.4278 21.2247 22.4162C19.7178 22.3969 18.4711 23.5983 18.4456 25.104C18.4374 25.5894 18.8242 25.9895 19.3095 25.9977C19.3147 25.9978 19.3196 25.9978 19.3247 25.9978C19.8032 25.9978 20.1951 25.614 20.2032 25.1337C20.2122 24.5959 20.6542 24.1644 21.1971 24.1738C21.4682 24.178 21.7182 24.2905 21.9011 24.4907C22.2285 24.8492 22.7846 24.8742 23.1428 24.5468C23.5012 24.2195 23.5264 23.6635 23.1989 23.3051Z" fill="#628F06"/>
<path d="M27.8749 26.1696C27.6055 25.5363 27.0811 25.0365 26.4358 24.7982C25.138 24.3195 23.6914 24.9848 23.2105 26.281C23.0417 26.7362 23.2738 27.2419 23.7289 27.4108C23.8296 27.4482 23.9329 27.4659 24.0344 27.4659C24.3914 27.4659 24.7271 27.2468 24.8585 26.8924C25.0029 26.5031 25.438 26.3039 25.8271 26.4474C26.0227 26.5196 26.1755 26.6653 26.2572 26.8575C26.4471 27.3041 26.9634 27.5124 27.4099 27.3223C27.8568 27.1324 28.0648 26.6163 27.8749 26.1696Z" fill="#628F06"/>
<path d="M33.5396 18.3854C33.196 18.0424 32.6395 18.0431 32.2967 18.3867L31.4682 19.2168C31.1253 19.5604 31.1259 20.1169 31.4695 20.4597C31.641 20.6309 31.8656 20.7165 32.0903 20.7165C32.3155 20.7165 32.5407 20.6304 32.7124 20.4584L33.5409 19.6283C33.8838 19.2847 33.8832 18.7281 33.5396 18.3854Z" fill="#628F06"/>
<path d="M28.0716 29.7319H26.9002C26.4147 29.7319 26.0213 30.1254 26.0213 30.6108C26.0213 31.0962 26.4147 31.4897 26.9002 31.4897H28.0716C28.5571 31.4897 28.9505 31.0962 28.9505 30.6108C28.9505 30.1254 28.5571 29.7319 28.0716 29.7319Z" fill="#628F06"/>
<path d="M37.0532 29.7319H35.8817C35.3962 29.7319 35.0028 30.1254 35.0028 30.6108C35.0028 31.0962 35.3963 31.4897 35.8817 31.4897H37.0532C37.5386 31.4897 37.9321 31.0962 37.9321 30.6108C37.9321 30.1254 37.5386 29.7319 37.0532 29.7319Z" fill="#628F06"/>
<path d="M59.9718 45.5794L59.7429 44.344C59.597 43.5546 58.9077 42.9817 58.1039 42.9817C58.003 42.9817 57.9013 42.991 57.8012 43.0094L53.1419 43.8653L55.2519 42.4547C55.8049 42.0851 56.0844 41.424 55.9638 40.7681C55.9303 40.5884 55.8675 40.416 55.7766 40.2547L55.138 39.1239C54.9192 38.7354 54.5461 38.4468 54.1154 38.3324C53.9045 38.2762 53.684 38.2636 53.4688 38.2917C53.7038 36.9949 53.8249 35.6704 53.8249 34.3222C53.8249 33.7239 53.4652 33.2091 52.9513 32.9805C53.6228 31.3835 53.6686 29.5551 53.0049 27.8808C52.9511 27.7446 52.8712 27.6231 52.7677 27.5195C52.665 27.4168 52.5449 27.3375 52.4086 27.2828C51.6133 26.966 50.7774 26.8055 49.9241 26.8055C49.815 26.8055 49.7064 26.8083 49.5981 26.8134C49.4764 24.3603 47.4461 22.402 44.9676 22.402C44.6412 22.402 44.323 22.4367 44.0156 22.5014C44.2291 21.2241 44.1033 19.8878 43.6059 18.6332C43.5524 18.4952 43.4722 18.3715 43.3631 18.2606C43.2581 18.1556 43.1349 18.0747 42.9983 18.0204C42.1415 17.6792 41.241 17.5062 40.3218 17.5062C38.9371 17.5062 37.6126 17.8955 36.4691 18.6192C36.0513 17.409 35.3624 16.2729 34.3998 15.3081C34.1178 15.0257 33.7428 14.8701 33.3438 14.8701C32.9448 14.8701 32.5698 15.0257 32.2875 15.3083L28.0321 19.5735C27.2446 18.8711 26.2083 18.4512 25.0835 18.4512C24.8283 18.4512 24.5706 18.4736 24.3176 18.5176C23.4008 18.6772 22.5572 19.126 21.9105 19.7831C21.0811 19.3829 20.1311 19.2464 19.2181 19.4053C19.0172 19.4402 18.8223 19.4895 18.6332 19.5495V16.2628C18.6332 13.9995 16.8141 12.1548 14.5639 12.1159V10.252C15.2527 10.1328 15.7786 9.53243 15.7786 8.81009V4.58679C15.7786 3.77913 15.1216 3.12195 14.3138 3.12195H7.16646C6.35869 3.12195 5.70162 3.77913 5.70162 4.58679V8.81009C5.70162 9.53243 6.22755 10.1328 6.91638 10.252V12.1157C4.66615 12.1545 2.84718 13.9991 2.84718 16.2626V41.9144C1.09242 43.4991 0 45.7103 0 48.1555C0 52.9656 4.22166 56.8789 9.41094 56.8789L44.589 56.8686C45.7897 56.8682 46.9189 56.3405 47.6869 55.421C48.435 54.5259 48.753 53.3633 48.5698 52.2168L55.596 53.4795C55.6933 53.4969 55.7929 53.5058 55.8917 53.5058C56.242 53.5058 56.5778 53.3982 56.8621 53.195C57.2276 52.9339 57.475 52.5298 57.5409 52.0864L57.7313 50.8095C57.7587 50.6265 57.7556 50.4423 57.7222 50.2617C57.6013 49.6088 57.1041 49.0907 56.4554 48.9421L53.9789 48.374L58.6337 47.5189C59.0727 47.4382 59.4536 47.1918 59.7062 46.8249C59.9584 46.4589 60.0526 46.0166 59.9718 45.5794ZM49.9241 28.563C50.4532 28.563 50.9734 28.6468 51.4736 28.8119C51.9205 30.1729 51.7532 31.6409 51.0534 32.8536H48.6857L49.4412 32.0963C49.7841 31.7527 49.7834 31.1962 49.4397 30.8533C49.096 30.5104 48.5395 30.511 48.1968 30.8547L47.7971 31.2554C47.6097 30.6384 47.2825 30.086 46.8524 29.6328C47.7248 28.9401 48.7956 28.563 49.9241 28.563ZM44.9676 24.1596C46.5549 24.1596 47.8462 25.4548 47.8462 27.0467C47.8462 27.0763 47.8448 27.1055 47.844 27.1347C46.9175 27.436 46.0635 27.9394 45.3352 28.6229C45.2193 28.579 45.1018 28.5382 44.9811 28.5048C44.724 27.1159 43.788 26.0026 42.5516 25.4826C43.0647 24.6876 43.9551 24.1596 44.9676 24.1596ZM40.3217 19.2638C40.9187 19.2638 41.5053 19.3603 42.0706 19.5513C42.5249 20.9023 42.4321 22.3534 41.8532 23.6103C41.3773 24.0438 40.9912 24.5747 40.7273 25.1714C40.5704 25.1805 40.4135 25.1979 40.2584 25.2248C39.5697 25.3447 38.9275 25.6435 38.3901 26.0769C38.2068 25.7417 37.9824 25.4325 37.7253 25.1541L39.7408 23.134C40.0837 22.7904 40.083 22.2339 39.7393 21.8911C39.3957 21.5482 38.8392 21.5488 38.4963 21.8925L36.2934 24.1004C35.8742 23.9023 35.4212 23.7644 34.9451 23.7C35.1507 22.6512 35.6597 21.6629 36.4469 20.8738C37.4827 19.8355 38.8589 19.2638 40.3217 19.2638ZM33.587 32.8536H32.8251C32.6968 32.5271 32.3796 32.2957 32.0075 32.2957C31.6355 32.2957 31.3182 32.5272 31.1899 32.8536H30.2937C30.5018 32.5147 30.4597 32.0656 30.1659 31.7724C29.8223 31.4295 29.2658 31.4301 28.9229 31.7737L28.0945 32.6039C28.0201 32.6784 27.9629 32.7634 27.9209 32.8536H26.132C25.462 31.8255 25.0532 30.612 25.0048 29.3066H38.9484C38.9 30.612 38.4911 31.8255 37.8212 32.8536H35.9597C35.9177 32.7634 35.8603 32.6783 35.786 32.6038L34.9577 31.7736C34.6147 31.4301 34.0584 31.4292 33.7148 31.7722C33.4208 32.0654 33.3787 32.5146 33.587 32.8536ZM31.5429 27.5488C31.8742 26.321 32.9941 25.415 34.3214 25.415C35.6488 25.415 36.7687 26.3211 37.1 27.5488H31.5429ZM33.3402 16.7417C34.1762 17.6452 34.729 18.7179 35 19.8455C34.5513 20.3331 34.1785 20.8719 33.8845 21.4453C33.751 21.3635 33.5946 21.3156 33.4267 21.3156H32.2555C31.7701 21.3156 31.3766 21.7091 31.3766 22.1945C31.3766 22.6799 31.7701 23.0734 32.2555 23.0734H33.2829C33.2251 23.3161 33.1802 23.5617 33.1476 23.8092C32.7987 23.9009 32.4654 24.0314 32.1534 24.1976C31.5676 23.1866 30.5975 22.4332 29.4482 22.131C29.4478 22.1285 29.4473 22.1261 29.4469 22.1236C29.378 21.7259 29.2577 21.3485 29.0938 20.9978L33.3402 16.7417ZM17.4522 24.6724C17.4006 24.5283 17.3616 24.3804 17.3359 24.232C17.0839 22.7788 18.0636 21.3904 19.5194 21.1369C19.6729 21.1102 19.8289 21.0966 19.9829 21.0966C20.5619 21.0966 21.1152 21.2813 21.5829 21.6306C21.7764 21.7752 22.0211 21.8337 22.2592 21.7924C22.4973 21.7511 22.7079 21.6136 22.8415 21.4122C23.2541 20.7898 23.8854 20.3768 24.619 20.2491C24.7729 20.2222 24.9292 20.2088 25.0835 20.2088C26.3857 20.2088 27.4924 21.1404 27.7149 22.4242C27.7404 22.5713 27.7535 22.7245 27.7538 22.8798C27.7546 23.3347 28.1025 23.7139 28.5558 23.7538C29.5384 23.8402 30.3749 24.4585 30.7627 25.3297C30.2435 25.9528 29.8836 26.7136 29.747 27.5488H24.7347C24.1115 27.5488 23.5767 27.9335 23.3537 28.4779C22.251 27.7269 20.9514 27.3222 19.5895 27.3222C18.7362 27.3222 17.9003 27.4829 17.1044 27.7998C16.9694 27.8537 16.8487 27.9333 16.7458 28.0361C16.6415 28.1404 16.5615 28.2627 16.509 28.3967C16.3067 28.9069 16.1718 29.4313 16.0989 29.959C15.7839 29.6004 15.562 29.1545 15.4753 28.6541C15.2685 27.4616 15.8928 26.2742 16.9928 25.7666C17.4063 25.5758 17.6056 25.101 17.4522 24.6724ZM20.0723 32.6132L20.312 32.8536H18.2011C17.7272 31.7541 17.6553 30.5027 18.04 29.329C18.5409 29.1636 19.0608 29.0799 19.5895 29.0799C20.9138 29.0799 22.1596 29.5976 23.0972 30.5373C23.2219 30.6623 23.338 30.7933 23.4471 30.9287C23.5961 31.603 23.8249 32.2471 24.1198 32.8535H22.7952L21.3167 31.3715C20.9737 31.0281 20.4171 31.0271 20.0738 31.3701C19.7301 31.7131 19.7294 32.2696 20.0723 32.6132ZM16.3293 32.8536H13.1961C13.3358 32.0022 13.8479 31.2765 14.5587 30.8485C14.9796 31.4123 15.5288 31.8682 16.1616 32.177C16.2064 32.405 16.2613 32.6311 16.3293 32.8536ZM7.45942 4.87975H14.0208V8.51712H7.45942V4.87975ZM12.8061 10.2749V12.1139H8.6743V10.2749H12.8061ZM4.6051 19.827H10.3125C10.798 19.827 11.1914 19.4334 11.1914 18.9481C11.1914 18.4627 10.798 18.0692 10.3125 18.0692H4.6051V16.2626C4.6051 14.9442 5.67431 13.8718 6.98857 13.8718H14.4918C15.8062 13.8718 16.8754 14.9442 16.8754 16.2626V18.0692H15.2343C14.7488 18.0692 14.3554 18.4627 14.3554 18.9481C14.3554 19.4334 14.7488 19.827 15.2343 19.827H16.8754V20.6071C15.8684 21.5944 15.3454 23.0422 15.6037 24.5316C15.6042 24.5345 15.6047 24.5375 15.6052 24.5406C14.1952 25.508 13.4439 27.2278 13.7431 28.9543C13.7606 29.0551 13.7825 29.1542 13.8064 29.2523C13.3673 29.4944 12.973 29.8071 12.635 30.1729H4.6051V19.827ZM4.60498 31.9306H11.6144C11.5211 32.2269 11.4553 32.5352 11.4232 32.8536H11.275C10.4661 32.8536 9.80785 33.5123 9.80785 34.3219C9.80785 35.7175 9.93758 37.0876 10.1889 38.4279C9.93641 38.4077 9.67742 38.3968 9.41399 38.3968C8.3511 38.3968 7.33837 38.5654 6.56271 38.8717C5.37619 39.3402 5.04818 40.0055 4.97658 40.4658C4.85084 40.5284 4.72733 40.5945 4.60498 40.6621V31.9306ZM15.7344 42.7277C16.0509 42.9809 16.2444 43.1962 16.3565 43.3514C16.346 43.3516 16.3349 43.3517 16.3238 43.3517C15.8263 43.3517 14.9326 43.1512 13.9162 42.5886C13.5378 42.3789 13.1892 42.1421 12.9079 41.9038C12.58 41.626 12.0992 41.6262 11.7716 41.9039C11.4903 42.1424 11.1418 42.3791 10.7637 42.5883C9.74715 43.1512 8.85336 43.3517 8.35602 43.3517C8.34466 43.3517 8.33376 43.3516 8.32309 43.3514C8.43512 43.1962 8.6286 42.9808 8.94524 42.7274C9.22192 42.5059 9.33852 42.1398 9.2409 41.7992C9.14317 41.4584 8.85043 41.2096 8.49829 41.1684C7.64059 41.0678 7.09825 40.8495 6.84431 40.6906C7.16247 40.4924 7.96684 40.1546 9.41434 40.1546C10.6132 40.1546 11.4894 40.4067 11.9096 40.6427C12.1769 40.7927 12.5028 40.7927 12.7701 40.6428C13.1906 40.4068 14.0669 40.1547 15.2657 40.1547C16.7133 40.1547 17.5176 40.4927 17.8356 40.6907C17.5818 40.8497 17.0393 41.0679 16.1814 41.1685C15.8293 41.2099 15.5364 41.4585 15.4388 41.7994C15.3408 42.1402 15.4574 42.5063 15.7344 42.7277ZM13.9762 53.4252L14.0064 53.5881C14.111 54.1526 14.3314 54.6707 14.6394 55.1211H9.41094C5.19103 55.1211 1.75781 51.9964 1.75781 48.1555C1.75781 45.5307 3.36186 43.2413 5.72388 42.0542C5.99517 42.2567 6.33337 42.4313 6.73462 42.5722C6.57548 42.8439 6.46462 43.1362 6.43849 43.441C6.4038 43.8462 6.52779 44.231 6.78794 44.5247C7.13165 44.9128 7.65923 45.1096 8.35602 45.1096C9.28461 45.1096 10.503 44.742 11.6151 44.1263C11.8712 43.9846 12.1133 43.835 12.3399 43.6786C12.5664 43.8348 12.8085 43.9845 13.0647 44.1264C14.1768 44.742 15.3952 45.1095 16.3238 45.1096H16.3239C17.0205 45.1096 17.5481 44.9128 17.8916 44.5248C18.1519 44.2312 18.276 43.8463 18.2412 43.441C18.2151 43.1362 18.1042 42.8439 17.9451 42.5722C18.3463 42.4312 18.6847 42.2566 18.9559 42.0542C20.8292 42.9957 22.225 44.6305 22.7227 46.5762L16.5065 48.9376C14.6869 49.629 13.6228 51.5162 13.9762 53.4252ZM46.3379 54.294C45.9045 54.8129 45.2667 55.1106 44.5881 55.1108L43.6656 55.1112L43.0893 51.9993C43.0008 51.522 42.5425 51.2064 42.065 51.2951C41.5878 51.3834 41.2725 51.842 41.3608 52.3193L41.8781 55.1118L38.8539 55.1129L38.4643 53.0086C38.3758 52.5313 37.9174 52.2161 37.44 52.3044C36.9628 52.3928 36.6474 52.8513 36.7358 53.3286L37.0663 55.1136L30.0321 55.1163L29.5027 52.2584C29.4141 51.7811 28.9559 51.4658 28.4783 51.5543C28.001 51.6427 27.6858 52.1013 27.7741 52.5786L28.2444 55.117L17.9737 55.121C17.9734 55.121 17.9732 55.121 17.973 55.121C16.8747 55.121 15.9335 54.3417 15.7345 53.2676L15.7042 53.1047C15.5056 52.0317 16.1054 50.9704 17.1304 50.5808L20.5847 49.2686L20.8421 50.6575C20.9205 51.0806 21.2898 51.3764 21.7051 51.3764C21.7584 51.3764 21.8123 51.3715 21.8664 51.3615C22.3436 51.2731 22.6588 50.8145 22.5703 50.3372L22.2548 48.6341L27.3823 46.6862C27.836 46.5139 28.0642 46.0062 27.8918 45.5525C27.7194 45.0986 27.2112 44.8705 26.7581 45.0429L24.3721 45.9494C23.7027 43.5795 21.9831 41.5998 19.7028 40.4657C19.6312 40.0054 19.3032 39.3401 18.1168 38.8716C17.3411 38.5653 16.3284 38.3967 15.2655 38.3967C14.534 38.3967 13.8355 38.4774 13.2188 38.6245V38.0936C13.2188 37.6082 12.8254 37.2147 12.3399 37.2147C12.1347 37.2147 11.9465 37.2855 11.7969 37.4034C11.6582 36.4866 11.5807 35.5555 11.5678 34.6112H40.1952C40.6807 34.6112 41.0741 34.2177 41.0741 33.7323C41.0741 33.2469 40.6807 32.8534 40.1952 32.8534H39.8355C40.3952 31.7007 40.7114 30.4084 40.7114 29.0426C40.7114 28.2671 40.118 27.6283 39.362 27.5558C39.6911 27.2454 40.102 27.0361 40.56 26.9563C40.6941 26.933 40.8303 26.9211 40.9648 26.9211C42.0996 26.9211 43.0638 27.7329 43.2575 28.8511C43.2799 28.9806 43.2914 29.1142 43.2915 29.2483C43.2921 29.7035 43.6401 30.0829 44.0935 30.1228C45.1438 30.215 46.0032 31.005 46.1833 32.0437C46.2311 32.3199 46.2251 32.5925 46.1772 32.8534H45.2342C44.7487 32.8534 44.3553 33.2469 44.3553 33.7323C44.3553 34.2177 44.7487 34.6112 45.2342 34.6112H52.0653C52.0435 36.2234 51.8358 37.7983 51.4485 39.3263L46.6853 42.1381C46.394 41.1242 45.7169 40.2642 44.784 39.742C43.7376 39.1564 42.4941 39.0649 41.3727 39.4908L31.5628 43.2176C31.1089 43.39 30.8809 43.8977 31.0533 44.3514C31.2257 44.8053 31.7338 45.0331 32.1869 44.8609L33.4793 44.37L33.8805 46.5365C33.9589 46.9596 34.3283 47.2555 34.7437 47.2555C34.7968 47.2555 34.8507 47.2506 34.9049 47.2407C35.382 47.1523 35.6974 46.6937 35.609 46.2164L35.1495 43.7356L41.9967 41.1344C42.6311 40.8934 43.334 40.9451 43.9255 41.2762C44.5158 41.6065 44.9248 42.1761 45.0476 42.8384L46.8257 52.4378C46.9483 53.0998 46.7705 53.7763 46.3379 54.294ZM49.4738 47.4144C49.0638 47.4898 48.7632 47.8428 48.7539 48.2596C48.7448 48.6764 49.0298 49.0423 49.4361 49.1354L55.9798 50.6364L55.8163 51.7331L48.2303 50.3699L47.0445 43.9675L53.652 40.067L54.2024 41.0417L48.6292 44.7672C48.2827 44.9989 48.1465 45.4421 48.3033 45.8283C48.46 46.2146 48.8666 46.4377 49.2766 46.3623L58.0311 44.7542L58.2261 45.8065L49.4738 47.4144Z" fill="#628F06"/>
</svg>
