<svg width="15" height="9" viewBox="0 0 15 9" fill="none" xmlns="http://www.w3.org/2000/svg">
<path d="M0.149879 1.71931L7.15447 8.72343C7.25454 8.82361 7.36968 8.87378 7.49992 8.87378C7.63016 8.87378 7.74551 8.82361 7.84564 8.72343L14.8496 1.71931C14.95 1.61897 15 1.50384 15 1.37354C15 1.2433 14.9498 1.12801 14.8496 1.02788L14.0983 0.276586C13.9981 0.176402 13.8828 0.126337 13.7526 0.126337C13.6223 0.126337 13.507 0.176402 13.4069 0.276586L7.49992 6.18342L1.59276 0.276217C1.49263 0.176034 1.37729 0.126285 1.24726 0.126285C1.1168 0.126285 1.00151 0.17635 0.901381 0.276217L0.149932 1.02783C0.0498018 1.12796 5.14984e-05 1.2433 5.14984e-05 1.37349C-9.53674e-07 1.50384 0.0497484 1.61913 0.149879 1.71931Z" fill="#625757"/>
</svg>
