<svg width="20" height="20" viewBox="0 0 20 20" fill="none" xmlns="http://www.w3.org/2000/svg">
<path d="M19.1641 8.96094H0.835948C0.308604 8.96094 0.429698 9.36719 0.46876 9.49219L4.21876 19.3555C4.25782 19.4766 4.42188 19.6016 4.58595 19.6016H15.418C15.582 19.6016 15.7422 19.4805 15.7852 19.3164L19.5274 9.49219C19.5899 9.29297 19.5899 8.96094 19.1641 8.96094ZM15.1328 18.7852H4.8672L1.44923 9.77734H18.5547L15.1328 18.7852Z" fill="#628F06"/>
<path d="M15.8203 7.16797L13.5547 2.85938C14.0469 2.39844 14.1445 1.63672 13.75 1.0625C13.3164 0.429688 12.4531 0.269532 11.8242 0.703125C11.1953 1.13672 11.0352 2 11.4648 2.62891C11.7773 3.08203 12.3086 3.29297 12.8203 3.21484L14.8984 7.16797H5.09766L7.17578 3.21484C7.6875 3.29688 8.22266 3.08594 8.53516 2.62891C8.96875 1.99609 8.80859 1.13281 8.17578 0.703125C7.54297 0.273438 6.68359 0.429688 6.25 1.0625C5.85938 1.63281 5.95312 2.39453 6.44141 2.85547L4.17188 7.16797H0.429688V7.98438H19.5703V7.16797H15.8203ZM12.9414 2.33594C12.6719 2.52344 12.3008 2.45313 12.1133 2.17969C11.9258 1.91016 11.9961 1.53906 12.2656 1.35156C12.5352 1.16406 12.9062 1.23438 13.0938 1.50781C13.2813 1.78125 13.2148 2.14844 12.9414 2.33594ZM6.90234 1.50781C7.08984 1.23828 7.45703 1.16797 7.73047 1.35156C8 1.53906 8.07031 1.90625 7.88281 2.17969C7.69531 2.44922 7.32812 2.51953 7.05469 2.33594C6.78516 2.14844 6.71875 1.78125 6.90234 1.50781Z" fill="#628F06"/>
<path d="M8.31641 16.7812L7.66016 11.625H6.83984L7.49609 16.7812H8.31641Z" fill="#628F06"/>
<path d="M13.1875 11.625H12.3672L11.7148 16.7812H12.5352L13.1875 11.625Z" fill="#628F06"/>
</svg>
