<svg width="50" height="50" viewBox="0 0 50 50" fill="none" xmlns="http://www.w3.org/2000/svg">
<g clip-path="url(#clip0)">
<path d="M48.7239 23.3338H35.3904V0.834C35.3904 0.373566 35.0173 0.000488281 34.5573 0.000488281H27.8903C27.4303 0.000488281 27.0572 0.373566 27.0572 0.834V18.3339H8.72377V0.834C8.72377 0.373566 8.35069 0.000488281 7.89064 0.000488281H1.22408C0.763641 0.000488281 0.390564 0.373566 0.390564 0.834V49.167C0.390564 49.6274 0.763641 50.0005 1.22408 50.0005H46.2238C46.6602 50.0016 47.0237 49.6663 47.0573 49.2314L48.6621 28.3338H48.7239C49.184 28.3338 49.5571 27.9607 49.5571 27.5006V24.167C49.5571 23.7069 49.184 23.3338 48.7239 23.3338ZM2.05721 48.3338V1.66713H7.05713V19.1671C7.05713 19.6275 7.43021 20.0006 7.89064 20.0006H27.8907C28.3508 20.0006 28.7238 19.6275 28.7238 19.1671V1.66713H33.7238V23.3338H27.0572C26.5968 23.3338 26.2237 23.7069 26.2237 24.167V27.5003C26.2237 27.9607 26.5968 28.3338 27.0572 28.3338H27.119L28.6571 48.3338H2.05721ZM45.708 45.0006H32.0571V46.6672H45.5806L45.4521 48.3338H30.3287L28.7906 28.3338H46.9905L45.708 45.0006ZM47.8904 26.6671H27.8903V25.0005H47.8904V26.6671Z" fill="#628F06"/>
<path d="M39.508 43.3339H42.0574C42.5174 43.3339 42.8905 42.9608 42.8905 42.5004V41.3037C45.2728 38.4679 45.0862 34.2801 42.4613 31.667L41.0388 30.2445C40.7134 29.9191 40.1859 29.9191 39.8605 30.2445L38.4372 31.667C38.2297 31.8776 38.0348 32.1 37.8539 32.3338C36.827 31.8932 35.7211 31.6663 34.6038 31.667H32.0571C31.5971 31.667 31.224 32.0401 31.224 32.5005V35.0495C31.229 39.6226 34.9349 43.3289 39.508 43.3339ZM39.6156 32.8462L40.4487 32.013L41.2822 32.8462C42.6845 34.2397 43.2262 36.2809 42.699 38.1864C42.2512 36.1478 41.0514 34.353 39.339 33.1597C39.4271 33.0537 39.5164 32.9453 39.6156 32.8462ZM32.8906 33.3337H34.6065C38.2595 33.3379 41.2197 36.2985 41.2239 39.9514V41.6673H39.508C35.855 41.6631 32.8945 38.7029 32.8906 35.0495V33.3337Z" fill="#628F06"/>
<path d="M22.7024 35.0004H24.5571V33.3337H21.7395L18.6122 27.9172C18.3471 27.5186 17.8092 27.4103 17.4106 27.6754C17.3149 27.7391 17.2325 27.8215 17.1688 27.9172L13.5856 34.1238L12.7521 32.8737L11.3655 33.7987L12.6571 35.7362L9.95211 40.4172C9.72208 40.8159 9.85865 41.3255 10.2573 41.5555C10.3839 41.6288 10.5274 41.6673 10.6739 41.6673H16.3337L15.5303 42.8712L16.917 43.7963L18.3364 41.6673H25.1072C25.5676 41.6673 25.9407 41.2939 25.9407 40.8338C25.9407 40.6877 25.9021 40.5439 25.8289 40.4172L22.7024 35.0004ZM18.724 40.0007V38.3337H17.0574V40.0007H12.1173L14.0415 36.667H17.0574V35.0004H15.0039L17.8905 30.0004L20.2621 34.1081L18.864 36.2047L20.2507 37.1297L21.1914 35.7179L23.6641 40.0007H18.724Z" fill="#628F06"/>
</g>
<defs>
<clipPath id="clip0">
<rect width="50" height="50" fill="white" transform="translate(-6.10352e-05 0.000488281)"/>
</clipPath>
</defs>
</svg>
