<svg width="50" height="50" viewBox="0 0 50 50" fill="none" xmlns="http://www.w3.org/2000/svg">
<g clip-path="url(#clip0)">
<path d="M44.5658 32.6564C44.5174 32.5755 44.4665 32.4981 44.4157 32.4297C43.9108 31.7238 43.1599 31.2572 42.3032 31.1163C41.4507 30.9755 40.5866 31.1763 39.8832 31.6814L30.5665 38.3339H20.8332C20.3741 38.3339 19.9999 37.9606 19.9999 37.5006C19.9999 37.0406 20.3741 36.6673 20.8332 36.6673H26.2499C27.8582 36.6673 29.1666 35.359 29.1666 33.7506C29.1666 33.7414 29.1658 33.6648 29.165 33.6564C29.1133 32.0489 27.7575 30.7956 26.1833 30.834H15.3425C14.3817 30.8423 13.4458 31.1865 12.7083 31.8015L8.63334 35.1932C8.4433 35.3523 8.33334 35.5865 8.33334 35.834V45.834C8.33334 46.2948 8.70668 46.6673 9.16664 46.6673H29.8425C31.1958 46.6656 32.5142 46.189 33.5559 45.3265L43.6584 36.979C45.0308 36.0013 45.4291 34.103 44.5658 32.6564ZM42.645 35.658L32.4941 44.0422C31.7491 44.6589 30.8066 44.9988 29.8415 45.0005H9.99994V36.2246L13.7757 33.0813C14.2191 32.7121 14.7799 32.5054 15.3499 32.5004L26.2099 32.4996C26.9007 32.4987 27.4774 33.0213 27.4999 33.7505C27.4999 34.4397 26.9391 35.0005 26.2499 35.0005H20.8332C19.4549 35.0005 18.3332 36.1222 18.3332 37.5005C18.3332 38.8788 19.4549 40.0005 20.8332 40.0005H30.8332C31.0066 40.0005 31.1757 39.9463 31.3191 39.8455L40.854 33.0363C41.1974 32.7897 41.6149 32.6939 42.0332 32.7605C42.4507 32.8296 42.8158 33.0563 43.0665 33.4063C43.0915 33.4404 43.114 33.4754 43.1357 33.5112C43.5574 34.2172 43.3616 35.1446 42.645 35.658Z" fill="#628F06"/>
<path d="M9.14164 34.1672H-6.10352e-05V35.8339H8.30824V48.3339H-6.10352e-05V50.0005H9.14164C9.6016 50.0005 9.97494 49.6281 9.97494 49.1672V35.0005C9.97494 34.5397 9.6016 34.1672 9.14164 34.1672Z" fill="#628F06"/>
<path d="M4.16663 41.6672C2.78831 41.6672 1.66663 42.7889 1.66663 44.1672C1.66663 45.5456 2.78831 46.6672 4.16663 46.6672C5.54495 46.6672 6.66663 45.5456 6.66663 44.1672C6.66663 42.7889 5.54495 41.6672 4.16663 41.6672ZM4.16663 45.0005C3.70745 45.0005 3.33333 44.6272 3.33333 44.1672C3.33333 43.7073 3.70745 43.3339 4.16663 43.3339C4.62581 43.3339 4.99993 43.7073 4.99993 44.1672C4.99993 44.6272 4.62581 45.0005 4.16663 45.0005Z" fill="#628F06"/>
<path d="M49.1666 25.8339H0.83324C0.373279 25.8339 -6.10352e-05 26.2063 -6.10352e-05 26.6672C-6.10352e-05 29.883 2.61664 32.5005 5.83324 32.5005H44.1665C47.3824 32.5005 49.9998 29.883 49.9998 26.6672C49.9999 26.2064 49.6275 25.8339 49.1666 25.8339ZM44.1666 30.8339H5.83324C3.82074 30.8339 2.13744 29.3997 1.75072 27.5006H48.2491C47.8624 29.3997 46.1791 30.8339 44.1666 30.8339Z" fill="#628F06"/>
<path d="M25 4.16724C13.0533 4.16724 3.33325 13.8873 3.33325 25.8339V26.6672C3.33325 27.1281 3.70659 27.5005 4.16655 27.5005H45.8333C46.2941 27.5005 46.6666 27.1281 46.6666 26.6672V25.8339C46.6666 13.8872 36.9474 4.16724 25 4.16724ZM4.99995 25.8338C4.99995 14.8063 13.9724 5.83384 25 5.83384C36.0275 5.83384 45 14.8063 45 25.8338H4.99995Z" fill="#628F06"/>
<path d="M11.2933 13.673C10.7108 14.328 10.1708 15.0288 9.68832 15.7572L11.0775 16.678C11.5175 16.0146 12.0091 15.3754 12.5391 14.7796L11.2933 13.673Z" fill="#628F06"/>
<path d="M24.9999 7.50049C20.32 7.50303 15.8641 9.27129 12.4541 12.4771L13.5958 13.6913C16.6958 10.7763 20.7466 9.16963 25.0008 9.16719L24.9999 7.50049Z" fill="#628F06"/>
<path d="M27.4999 0.000488281H22.4999V1.66719H27.4999V0.000488281Z" fill="#628F06"/>
<path d="M25.8333 0.833862H24.1667V5.00056H25.8333V0.833862Z" fill="#628F06"/>
</g>
<defs>
<clipPath id="clip0">
<rect width="50" height="50" fill="white" transform="translate(-6.10352e-05 0.000488281)"/>
</clipPath>
</defs>
</svg>
