<svg width="15" height="9" viewBox="0 0 15 9" fill="none" xmlns="http://www.w3.org/2000/svg">
<path d="M14.8501 7.28069L7.84553 0.276574C7.74546 0.176391 7.63032 0.126221 7.50008 0.126221C7.36984 0.126221 7.25449 0.176391 7.15436 0.276574L0.150353 7.28069C0.0500125 7.38103 0 7.49616 0 7.62646C0 7.7567 0.0501704 7.87199 0.150353 7.97212L0.901698 8.72341C1.00188 8.8236 1.11717 8.87366 1.24742 8.87366C1.37766 8.87366 1.49295 8.8236 1.59313 8.72341L7.50008 2.81658L13.4072 8.72378C13.5074 8.82397 13.6227 8.87372 13.7527 8.87372C13.8832 8.87372 13.9985 8.82365 14.0986 8.72378L14.8501 7.97217C14.9502 7.87204 14.9999 7.7567 14.9999 7.62651C15 7.49616 14.9503 7.38087 14.8501 7.28069Z" fill="#625757"/>
</svg>
