<svg width="60" height="60" viewBox="0 0 60 60" fill="none" xmlns="http://www.w3.org/2000/svg">
<path d="M59.9741 40.3623C59.7399 39.169 57.672 28.6593 57.1612 27.1248C55.933 23.4357 52.9823 19.236 49.2682 15.8906C45.4066 12.4124 41.4056 10.4176 38.291 10.4176H7.99379C6.42364 10.4176 5.14616 11.6951 5.14616 13.2652V17.7397H3.04835C2.27903 17.7397 1.6553 18.3634 1.6553 19.1327C1.6553 19.9021 2.27903 20.5258 3.04835 20.5258H5.14604V23.8488H1.39305C0.623722 23.8488 0 24.4725 0 25.2418C0 26.0111 0.623722 26.6349 1.39305 26.6349H5.14604V40.6304C5.14604 42.2005 6.42352 43.4779 7.99367 43.4779H11.4668C11.9861 46.9288 14.9708 49.5832 18.5641 49.5832C22.1574 49.5832 25.1421 46.9288 25.6613 43.4779H38.439C38.9582 46.9288 41.943 49.5832 45.5363 49.5832C49.1296 49.5832 52.1143 46.9288 52.6334 43.4779H57.1523C58.7225 43.4779 60 42.2005 60 40.6304C60 40.5405 59.9913 40.4507 59.9741 40.3623ZM54.3583 27.5557L40.0036 27.5556V13.4527C45.0889 14.8185 52.1375 21.5844 54.3583 27.5557ZM18.5642 46.7972C16.1428 46.7972 14.1726 44.8272 14.1726 42.4056C14.1726 39.9841 16.1428 38.0141 18.5642 38.0141C20.9857 38.0141 22.9557 39.9841 22.9557 42.4056C22.9556 44.8272 20.9857 46.7972 18.5642 46.7972ZM45.5364 46.7972C43.1149 46.7971 41.1448 44.8271 41.1448 42.4056C41.1448 39.9841 43.1149 38.0141 45.5364 38.0141C47.9579 38.0141 49.9279 39.9841 49.9279 42.4056C49.9279 44.8272 47.9579 46.7972 45.5364 46.7972ZM57.0834 40.6919C55.9218 40.6919 52.5056 40.6919 52.5056 40.6919C51.7351 37.5593 48.9036 35.2281 45.5364 35.2281C42.1692 35.2281 39.3376 37.5593 38.5671 40.6919H25.5335C24.7629 37.5593 21.9314 35.2281 18.5642 35.2281C15.1971 35.2281 12.3654 37.5593 11.5949 40.6919H7.99379C7.95987 40.6919 7.93225 40.6643 7.93225 40.6305V26.635H25.0042C25.7736 26.635 26.3973 26.0113 26.3973 25.2419C26.3973 24.4726 25.7736 23.8489 25.0042 23.8489H7.93213V20.5259H15.7901C16.5595 20.5259 17.1832 19.9022 17.1832 19.1329C17.1832 18.3635 16.5595 17.7398 15.7901 17.7398H7.93213V13.2654C7.93213 13.2314 7.95975 13.2038 7.99367 13.2038H37.2175V28.9486C37.2175 29.718 37.8411 30.3417 38.6105 30.3417L55.0794 30.3418C55.6734 33.0505 56.4882 37.3921 57.1818 40.606C57.1959 40.6707 57.1554 40.6919 57.0834 40.6919Z" fill="#628F06"/>
</svg>
