<svg width="50" height="50" viewBox="0 0 50 50" fill="none" xmlns="http://www.w3.org/2000/svg">
<g clip-path="url(#clip0)">
<mask id="path-1-inside-1" fill="white">
<path d="M49.8884 34.3546C49.5415 33.0906 48.4817 32.1501 47.1854 31.9556V12.9559H48.8411C49.2982 12.9559 49.6689 12.5852 49.6689 12.1281V3.84991C49.6689 3.39235 49.2982 3.02209 48.8411 3.02209H12.4172C11.96 3.02209 11.5894 3.39235 11.5894 3.84991V12.1281C11.5894 12.5852 11.96 12.9559 12.4172 12.9559H14.0728V29.5122H13.245C11.1904 29.5073 9.17786 30.0963 7.45028 31.2083V27.0287C7.45028 26.5712 7.07962 26.2009 6.62246 26.2009H0.827755C0.370597 26.2009 -6.10352e-05 26.5712 -6.10352e-05 27.0287V46.0685C-6.10352e-05 46.5257 0.370597 46.8963 0.827755 46.8963H6.62246C7.07962 46.8963 7.45028 46.5257 7.45028 46.0685V41.8894C9.17826 43.0006 11.1904 43.5895 13.245 43.5851H26.8377C27.7795 43.5834 28.7168 43.4598 29.6267 43.2172L47.5496 38.4161C49.3132 37.9355 50.358 36.1214 49.8884 34.3546ZM13.245 4.67773H48.0132V11.3003H13.245V4.67773ZM15.7284 12.9559H45.5298V32.0979L35.9222 34.6743C35.5265 33.7309 34.7193 33.0223 33.7326 32.7519L22.5785 29.7604C21.9504 29.5951 21.3037 29.5114 20.6541 29.5122H15.7284V12.9559ZM5.79465 45.2407H1.65557V27.8566H5.79465V45.2407ZM47.1199 36.8166L29.2002 41.6178C28.4294 41.8235 27.6356 41.9282 26.8377 41.9294H13.245C11.2741 41.9339 9.35531 41.2944 7.78132 40.1081L7.45028 39.8599V33.2374L7.78132 32.9888C9.35531 31.8024 11.2741 31.1626 13.245 31.1678H20.6541C21.1598 31.1674 21.6638 31.2329 22.1533 31.3623L33.3038 34.3514C33.9626 34.5329 34.4448 35.0975 34.52 35.777C34.5289 35.811 34.5398 35.8445 34.5532 35.8772C34.5435 35.9128 34.5362 35.9488 34.5313 35.9856C34.5321 36.1202 34.5139 36.2544 34.4768 36.3837C34.2819 37.1052 33.6283 37.6068 32.881 37.6081C32.735 37.6093 32.5903 37.5907 32.4497 37.5535L25.4132 35.6667C25.1246 35.581 24.8122 35.6586 24.5971 35.8696C24.3825 36.0806 24.2988 36.3914 24.3793 36.6816C24.4597 36.9714 24.6913 37.1954 24.9844 37.2653L32.0208 39.1529C32.3017 39.2269 32.5915 39.2641 32.8826 39.2637C34.3709 39.2629 35.6752 38.2673 36.0685 36.8316C36.1146 36.6654 36.1457 36.4957 36.1623 36.3243L46.2541 33.6181C46.3261 33.5999 46.4041 33.5813 46.4777 33.5692C47.3018 33.4629 48.0767 33.9839 48.2897 34.7867C48.3269 34.9265 48.3455 35.0709 48.3443 35.2156C48.3455 35.965 47.8435 36.6214 47.1199 36.8166Z"/>
</mask>
<path d="M49.8884 34.3546C49.5415 33.0906 48.4817 32.1501 47.1854 31.9556V12.9559H48.8411C49.2982 12.9559 49.6689 12.5852 49.6689 12.1281V3.84991C49.6689 3.39235 49.2982 3.02209 48.8411 3.02209H12.4172C11.96 3.02209 11.5894 3.39235 11.5894 3.84991V12.1281C11.5894 12.5852 11.96 12.9559 12.4172 12.9559H14.0728V29.5122H13.245C11.1904 29.5073 9.17786 30.0963 7.45028 31.2083V27.0287C7.45028 26.5712 7.07962 26.2009 6.62246 26.2009H0.827755C0.370597 26.2009 -6.10352e-05 26.5712 -6.10352e-05 27.0287V46.0685C-6.10352e-05 46.5257 0.370597 46.8963 0.827755 46.8963H6.62246C7.07962 46.8963 7.45028 46.5257 7.45028 46.0685V41.8894C9.17826 43.0006 11.1904 43.5895 13.245 43.5851H26.8377C27.7795 43.5834 28.7168 43.4598 29.6267 43.2172L47.5496 38.4161C49.3132 37.9355 50.358 36.1214 49.8884 34.3546ZM13.245 4.67773H48.0132V11.3003H13.245V4.67773ZM15.7284 12.9559H45.5298V32.0979L35.9222 34.6743C35.5265 33.7309 34.7193 33.0223 33.7326 32.7519L22.5785 29.7604C21.9504 29.5951 21.3037 29.5114 20.6541 29.5122H15.7284V12.9559ZM5.79465 45.2407H1.65557V27.8566H5.79465V45.2407ZM47.1199 36.8166L29.2002 41.6178C28.4294 41.8235 27.6356 41.9282 26.8377 41.9294H13.245C11.2741 41.9339 9.35531 41.2944 7.78132 40.1081L7.45028 39.8599V33.2374L7.78132 32.9888C9.35531 31.8024 11.2741 31.1626 13.245 31.1678H20.6541C21.1598 31.1674 21.6638 31.2329 22.1533 31.3623L33.3038 34.3514C33.9626 34.5329 34.4448 35.0975 34.52 35.777C34.5289 35.811 34.5398 35.8445 34.5532 35.8772C34.5435 35.9128 34.5362 35.9488 34.5313 35.9856C34.5321 36.1202 34.5139 36.2544 34.4768 36.3837C34.2819 37.1052 33.6283 37.6068 32.881 37.6081C32.735 37.6093 32.5903 37.5907 32.4497 37.5535L25.4132 35.6667C25.1246 35.581 24.8122 35.6586 24.5971 35.8696C24.3825 36.0806 24.2988 36.3914 24.3793 36.6816C24.4597 36.9714 24.6913 37.1954 24.9844 37.2653L32.0208 39.1529C32.3017 39.2269 32.5915 39.2641 32.8826 39.2637C34.3709 39.2629 35.6752 38.2673 36.0685 36.8316C36.1146 36.6654 36.1457 36.4957 36.1623 36.3243L46.2541 33.6181C46.3261 33.5999 46.4041 33.5813 46.4777 33.5692C47.3018 33.4629 48.0767 33.9839 48.2897 34.7867C48.3269 34.9265 48.3455 35.0709 48.3443 35.2156C48.3455 35.965 47.8435 36.6214 47.1199 36.8166Z" fill="#628F06"/>
<path d="M47.1854 31.9556H37.1854V40.5676L45.7022 41.845L47.1854 31.9556ZM47.1854 12.9559V2.95588H37.1854V12.9559H47.1854ZM14.0728 12.9559H24.0728V2.95588H14.0728V12.9559ZM14.0728 29.5122V39.5122H24.0728V29.5122H14.0728ZM13.245 29.5122L13.2214 39.5122L13.2332 39.5122H13.245V29.5122ZM7.45028 31.2083H-2.54972V49.5373L12.8626 39.617L7.45028 31.2083ZM7.45028 41.8894L12.8589 33.4783L-2.54972 23.5699V41.8894H7.45028ZM13.245 43.5851V33.5851H13.2342L13.2233 33.5851L13.245 43.5851ZM26.8377 43.5851V53.5851H26.8462L26.8548 53.585L26.8377 43.5851ZM29.6267 43.2172L32.2022 52.8799L32.2142 52.8767L29.6267 43.2172ZM47.5496 38.4161L50.1372 48.0755L50.1581 48.0699L50.1789 48.0642L47.5496 38.4161ZM13.245 4.67773V-5.32227H3.24499V4.67773H13.245ZM48.0132 4.67773H58.0132V-5.32227H48.0132V4.67773ZM48.0132 11.3003V21.3003H58.0132V11.3003H48.0132ZM13.245 11.3003H3.24499V21.3003H13.245V11.3003ZM15.7284 12.9559V2.95588H5.72844V12.9559H15.7284ZM45.5298 12.9559H55.5298V2.95588H45.5298V12.9559ZM45.5298 32.0979L48.1199 41.7566L55.5298 39.7696V32.0979H45.5298ZM35.9222 34.6743L26.7006 38.5424L30.0782 46.5948L38.5123 44.3331L35.9222 34.6743ZM33.7326 32.7519L36.3758 23.1076L36.3495 23.1003L36.3231 23.0933L33.7326 32.7519ZM22.5785 29.7604L25.169 20.1017L25.1464 20.0957L25.1238 20.0897L22.5785 29.7604ZM20.6541 29.5122V39.5122L20.6665 39.5122L20.6541 29.5122ZM15.7284 29.5122H5.72844V39.5122H15.7284V29.5122ZM5.79465 45.2407V55.2407H15.7946V45.2407H5.79465ZM1.65557 45.2407H-8.34443V55.2407H1.65557V45.2407ZM1.65557 27.8566V17.8566H-8.34443V27.8566H1.65557ZM5.79465 27.8566H15.7946V17.8566H5.79465V27.8566ZM29.2002 41.6178L31.7791 51.2796L31.7882 51.2771L29.2002 41.6178ZM26.8377 41.9294V51.9294H26.8453L26.8529 51.9294L26.8377 41.9294ZM13.245 41.9294V31.9294H13.2337L13.2224 31.9295L13.245 41.9294ZM7.78132 40.1081L13.8003 32.1224L13.7901 32.1146L13.7798 32.1069L7.78132 40.1081ZM7.45028 39.8599H-2.54972V44.8611L1.45184 47.8611L7.45028 39.8599ZM7.45028 33.2374L1.44559 25.2409L-2.54972 28.241V33.2374H7.45028ZM7.78132 32.9888L13.786 40.9853L13.7932 40.9799L13.8003 40.9745L7.78132 32.9888ZM13.245 31.1678L13.2183 41.1678L13.2317 41.1678H13.245V31.1678ZM20.6541 31.1678V41.1678L20.6621 41.1678L20.6541 31.1678ZM22.1533 31.3623L24.7426 21.7033L24.7253 21.6987L24.7081 21.6941L22.1533 31.3623ZM33.3038 34.3514L35.9594 24.7104L35.9263 24.7013L35.893 24.6924L33.3038 34.3514ZM34.52 35.777L24.5807 36.8768L24.6611 37.6034L24.8463 38.3106L34.52 35.777ZM34.5532 35.8772L44.2008 38.5084L45.0919 35.2409L43.8141 32.1043L34.5532 35.8772ZM34.5313 35.9856L24.6172 34.6782L24.5274 35.359L24.5315 36.0456L34.5313 35.9856ZM34.4768 36.3837L24.8661 33.6206L24.8437 33.6985L24.8225 33.7768L34.4768 36.3837ZM32.881 37.6081L32.8647 27.6081L32.8313 27.6081L32.7979 27.6084L32.881 37.6081ZM32.4497 37.5535L29.8596 47.2123L29.8767 47.2168L29.8938 47.2213L32.4497 37.5535ZM25.4132 35.6667L22.5669 45.253L22.6946 45.2909L22.8232 45.3254L25.4132 35.6667ZM24.5971 35.8696L17.5935 28.7317L17.5868 28.7383L24.5971 35.8696ZM24.3793 36.6816L14.7426 39.3525L14.7435 39.356L24.3793 36.6816ZM24.9844 37.2653L27.5754 27.6068L27.4409 27.5707L27.3054 27.5384L24.9844 37.2653ZM32.0208 39.1529L29.4297 48.8114L29.4521 48.8174L29.4745 48.8233L32.0208 39.1529ZM32.8826 39.2637L32.8771 29.2637L32.8687 29.2637L32.8826 39.2637ZM36.0685 36.8316L26.4323 34.1588L26.4281 34.1742L26.4238 34.1896L36.0685 36.8316ZM36.1623 36.3243L33.5723 26.6655L26.876 28.4612L26.2087 35.3618L36.1623 36.3243ZM46.2541 33.6181L43.8032 23.9231L43.7335 23.9408L43.6641 23.9594L46.2541 33.6181ZM46.4777 33.5692L45.1984 23.6514L45.0244 23.6738L44.8513 23.7024L46.4777 33.5692ZM48.2897 34.7867L38.6242 37.3515L38.6255 37.3564L48.2897 34.7867ZM48.3443 35.2156L38.3446 35.1318L38.3442 35.1817L38.3443 35.2317L48.3443 35.2156ZM59.5319 31.7086C58.1377 26.6273 53.8778 22.8475 48.6687 22.0662L45.7022 41.845C43.0856 41.4526 40.9454 39.554 40.2448 37.0006L59.5319 31.7086ZM57.1854 31.9556V12.9559H37.1854V31.9556H57.1854ZM47.1854 22.9559H48.8411V2.95588H47.1854V22.9559ZM48.8411 22.9559C54.8211 22.9559 59.6689 18.1081 59.6689 12.1281H39.6689C39.6689 7.06238 43.7754 2.95588 48.8411 2.95588V22.9559ZM59.6689 12.1281V3.84991H39.6689V12.1281H59.6689ZM59.6689 3.84991C59.6689 -2.13368 54.8179 -6.97791 48.8411 -6.97791V13.0221C43.7785 13.0221 39.6689 8.91837 39.6689 3.84991H59.6689ZM48.8411 -6.97791H12.4172V13.0221H48.8411V-6.97791ZM12.4172 -6.97791C6.44035 -6.97791 1.58936 -2.13368 1.58936 3.84991H21.5894C21.5894 8.91837 17.4797 13.0221 12.4172 13.0221V-6.97791ZM1.58936 3.84991V12.1281H21.5894V3.84991H1.58936ZM1.58936 12.1281C1.58936 18.1081 6.43717 22.9559 12.4172 22.9559V2.95588C17.4829 2.95588 21.5894 7.06238 21.5894 12.1281H1.58936ZM12.4172 22.9559H14.0728V2.95588H12.4172V22.9559ZM4.0728 12.9559V29.5122H24.0728V12.9559H4.0728ZM14.0728 19.5122H13.245V39.5122H14.0728V19.5122ZM13.2686 19.5122C9.28723 19.5028 5.38686 20.644 2.03793 22.7995L12.8626 39.617C12.9689 39.5486 13.0936 39.5119 13.2214 39.5122L13.2686 19.5122ZM17.4503 31.2083V27.0287H-2.54972V31.2083H17.4503ZM17.4503 27.0287C17.4503 21.0452 12.5993 16.2009 6.62246 16.2009V36.2009C1.55995 36.2009 -2.54972 32.0972 -2.54972 27.0287H17.4503ZM6.62246 16.2009H0.827755V36.2009H6.62246V16.2009ZM0.827755 16.2009C-5.14907 16.2009 -10.0001 21.0452 -10.0001 27.0287H9.99994C9.99994 32.0972 5.89027 36.2009 0.827755 36.2009V16.2009ZM-10.0001 27.0287V46.0685H9.99994V27.0287H-10.0001ZM-10.0001 46.0685C-10.0001 52.0485 -5.15225 56.8963 0.827755 56.8963V36.8963C5.89345 36.8963 9.99994 41.0028 9.99994 46.0685H-10.0001ZM0.827755 56.8963H6.62246V36.8963H0.827755V56.8963ZM6.62246 56.8963C12.6025 56.8963 17.4503 52.0485 17.4503 46.0685H-2.54972C-2.54972 41.0028 1.55677 36.8963 6.62246 36.8963V56.8963ZM17.4503 46.0685V41.8894H-2.54972V46.0685H17.4503ZM2.04161 50.3005C5.38857 52.4527 9.28622 53.5937 13.2666 53.585L13.2233 33.5851C13.0946 33.5854 12.968 33.5484 12.8589 33.4783L2.04161 50.3005ZM13.245 53.5851H26.8377V33.5851H13.245V53.5851ZM26.8548 53.585C28.661 53.582 30.4582 53.3447 32.2022 52.8799L27.0511 33.5546C26.9754 33.5748 26.898 33.5849 26.8205 33.5851L26.8548 53.585ZM32.2142 52.8767L50.1372 48.0755L44.9621 28.7566L27.0391 33.5578L32.2142 52.8767ZM50.1789 48.0642C57.2468 46.1381 61.4353 38.867 59.5527 31.7854L40.224 36.9238C39.2808 33.3758 41.3796 29.7328 44.9203 28.7679L50.1789 48.0642ZM13.245 14.6777H48.0132V-5.32227H13.245V14.6777ZM38.0132 4.67773V11.3003H58.0132V4.67773H38.0132ZM48.0132 1.30025H13.245V21.3003H48.0132V1.30025ZM23.245 11.3003V4.67773H3.24499V11.3003H23.245ZM15.7284 22.9559H45.5298V2.95588H15.7284V22.9559ZM35.5298 12.9559V32.0979H55.5298V12.9559H35.5298ZM42.9397 22.4392L33.3321 25.0156L38.5123 44.3331L48.1199 41.7566L42.9397 22.4392ZM45.1438 30.8063C43.5589 27.0278 40.3253 24.19 36.3758 23.1076L31.0894 42.3963C29.1133 41.8547 27.494 40.434 26.7006 38.5424L45.1438 30.8063ZM36.3231 23.0933L25.169 20.1017L19.9881 39.419L31.1422 42.4106L36.3231 23.0933ZM25.1238 20.0897C23.6648 19.7057 22.1585 19.5103 20.6417 19.5122L20.6665 39.5122C20.4488 39.5125 20.236 39.4844 20.0333 39.431L25.1238 20.0897ZM20.6541 19.5122H15.7284V39.5122H20.6541V19.5122ZM25.7284 29.5122V12.9559H5.72844V29.5122H25.7284ZM5.79465 35.2407H1.65557V55.2407H5.79465V35.2407ZM11.6556 45.2407V27.8566H-8.34443V45.2407H11.6556ZM1.65557 37.8566H5.79465V17.8566H1.65557V37.8566ZM-4.20535 27.8566V45.2407H15.7946V27.8566H-4.20535ZM44.532 27.1573L26.6123 31.9585L31.7882 51.2771L49.7079 46.4759L44.532 27.1573ZM26.6214 31.956C26.6873 31.9384 26.7552 31.9295 26.8225 31.9294L26.8529 51.9294C28.5159 51.9269 30.1715 51.7086 31.7791 51.2795L26.6214 31.956ZM26.8377 31.9294H13.245V51.9294H26.8377V31.9294ZM13.2224 31.9295C13.4302 31.929 13.6331 31.9963 13.8003 32.1224L1.76231 48.0938C5.07752 50.5925 9.11794 51.9388 13.2675 51.9294L13.2224 31.9295ZM13.7798 32.1069L13.4487 31.8587L1.45184 47.8611L1.78289 48.1092L13.7798 32.1069ZM17.4503 39.8599V33.2374H-2.54972V39.8599H17.4503ZM13.455 41.2339L13.786 40.9853L1.77664 24.9923L1.44559 25.2409L13.455 41.2339ZM13.8003 40.9745C13.6343 41.0996 13.4304 41.1684 13.2183 41.1678L13.2716 21.1679C9.11776 21.1568 5.07633 22.5052 1.76231 25.0031L13.8003 40.9745ZM13.245 41.1678H20.6541V21.1678H13.245V41.1678ZM20.6621 41.1678C20.2994 41.1681 19.9421 41.1212 19.5985 41.0304L24.7081 21.6941C23.3855 21.3446 22.0201 21.1667 20.6461 21.1678L20.6621 41.1678ZM19.564 41.0212L30.7145 44.0103L35.893 24.6924L24.7426 21.7033L19.564 41.0212ZM30.6481 43.9923C27.3648 43.0879 24.9564 40.2726 24.5807 36.8768L44.4594 34.6772C43.9332 29.9225 40.5604 25.9778 35.9594 24.7104L30.6481 43.9923ZM24.8463 38.3106C24.9538 38.7212 25.0978 39.1729 25.2922 39.6502L43.8141 32.1043C43.9819 32.5161 44.104 32.9007 44.1937 33.2434L24.8463 38.3106ZM24.9055 33.2461C24.7784 33.7121 24.6815 34.1903 24.6172 34.6782L44.4455 37.2929C44.3909 37.7073 44.3085 38.1135 44.2008 38.5084L24.9055 33.2461ZM24.5315 36.0456C24.5267 35.2408 24.6352 34.4236 24.8661 33.6206L44.0875 39.1468C44.3927 38.0851 44.5376 36.9995 44.5311 35.9255L24.5315 36.0456ZM24.8225 33.7768C25.8036 30.1438 29.097 27.6142 32.8647 27.6081L32.8972 47.608C38.1597 47.5995 42.7603 44.0667 44.131 38.9906L24.8225 33.7768ZM32.7979 27.6084C33.5594 27.6021 34.3018 27.6996 35.0055 27.8856L29.8938 47.2213C30.8788 47.4818 31.9106 47.6165 32.964 47.6077L32.7979 27.6084ZM35.0397 27.8947L28.0033 26.0079L22.8232 45.3254L29.8596 47.2123L35.0397 27.8947ZM28.2596 26.0803C24.4868 24.9601 20.403 25.975 17.5935 28.7317L31.6008 43.0074C29.2213 45.3421 25.7624 46.2018 22.5669 45.253L28.2596 26.0803ZM17.5868 28.7383C14.7869 31.4907 13.6892 35.552 14.7426 39.3525L34.016 34.0107C34.9084 37.2308 33.9781 40.6704 31.6075 43.0008L17.5868 28.7383ZM14.7435 39.356C15.795 43.1443 18.8221 46.0756 22.6633 46.9922L27.3054 27.5384C30.5605 28.3151 33.1245 30.7985 34.015 34.0073L14.7435 39.356ZM22.3933 46.9238L29.4297 48.8114L34.6119 29.4944L27.5754 27.6068L22.3933 46.9238ZM29.4745 48.8233C30.5945 49.1182 31.745 49.2653 32.8965 49.2637L32.8687 29.2637C33.438 29.2629 34.0089 29.3356 34.5671 29.4826L29.4745 48.8233ZM32.888 49.2637C38.8797 49.2604 44.1302 45.2526 45.7132 39.4735L26.4238 34.1896C27.2203 31.2821 29.862 29.2653 32.8771 29.2637L32.888 49.2637ZM45.7047 39.5044C45.9098 38.7649 46.0448 38.0222 46.1159 37.2868L26.2087 35.3618C26.2467 34.9691 26.3194 34.566 26.4323 34.1588L45.7047 39.5044ZM38.7523 45.9831L48.8442 43.2769L43.6641 23.9594L33.5723 26.6655L38.7523 45.9831ZM48.7051 43.3131C48.6988 43.3147 48.638 43.3301 48.5498 43.3499C48.4638 43.3691 48.3074 43.4026 48.1041 43.4361L44.8513 23.7024C44.3404 23.7866 43.9234 23.8927 43.8032 23.9231L48.7051 43.3131ZM47.7569 43.4871C43.6024 44.0229 39.6975 41.3961 38.6242 37.3515L57.9552 32.2219C56.4559 26.5718 51.0013 22.9029 45.1984 23.6514L47.7569 43.4871ZM38.6255 37.3564C38.4368 36.6465 38.3382 35.8987 38.3446 35.1318L58.3439 35.2994C58.3528 34.243 58.217 33.2066 57.9539 32.217L38.6255 37.3564ZM38.3443 35.2317C38.3382 31.4548 40.8698 28.1455 44.5148 27.1619L49.7251 46.4713C54.8171 45.0973 58.3528 40.4751 58.3443 35.1994L38.3443 35.2317Z" fill="#628F06" mask="url(#path-1-inside-1)"/>
<path d="M30.596 15.4394C30.596 15.2605 30.6073 15.0842 30.6291 14.9113C30.651 15.0842 30.6622 15.2605 30.6622 15.4394C30.6622 15.6183 30.651 15.7946 30.6291 15.9675C30.6073 15.7946 30.596 15.6183 30.596 15.4394Z" fill="#628F06" stroke="#628F06" stroke-width="10"/>
</g>
<defs>
<clipPath id="clip0">
<rect width="50" height="50" fill="white" transform="translate(-6.10352e-05 0.000488281)"/>
</clipPath>
</defs>
</svg>
