<svg xmlns="http://www.w3.org/2000/svg" width="50" height="50" fill="none" viewBox="0 0 50 50">
    <g clip-path="url(#clip0)">
        <mask id="path-1-inside-1" fill="white">
            <path d="M49.1649 31.6685H0.834962C0.375002 31.6685 0.00166321 32.0409 0.00166321 32.5018C0.00166321 42.1503 7.85116 50.0005 17.5005 50.0005H32.4995C42.148 50.0005 49.9982 42.1503 49.9982 32.5018C49.9982 32.0409 49.6258 31.6685 49.1649 31.6685ZM32.4995 48.334H17.5005C9.05018 48.334 2.1248 41.6794 1.68984 33.335H48.31C47.8751 41.6794 40.9497 48.334 32.4995 48.334Z"/>
        </mask>
        <path fill="#628F06" d="M49.1649 31.6685H0.834962C0.375002 31.6685 0.00166321 32.0409 0.00166321 32.5018C0.00166321 42.1503 7.85116 50.0005 17.5005 50.0005H32.4995C42.148 50.0005 49.9982 42.1503 49.9982 32.5018C49.9982 32.0409 49.6258 31.6685 49.1649 31.6685ZM32.4995 48.334H17.5005C9.05018 48.334 2.1248 41.6794 1.68984 33.335H48.31C47.8751 41.6794 40.9497 48.334 32.4995 48.334Z"/>
        <path fill="#628F06" d="M49.9982 32.5018H46.9982H49.9982ZM1.68984 33.335V30.335H-1.47061L-1.30609 33.4911L1.68984 33.335ZM48.31 33.335L51.3059 33.4911L51.4704 30.335H48.31V33.335ZM49.1649 28.6685H0.834962V34.6685H49.1649V28.6685ZM0.834962 28.6685C-1.27979 28.6685 -2.99834 30.382 -2.99834 32.5018H3.00166C3.00166 33.6998 2.02979 34.6685 0.834962 34.6685V28.6685ZM-2.99834 32.5018C-2.99834 43.807 6.19422 53.0005 17.5005 53.0005V47.0005C9.5081 47.0005 3.00166 40.4935 3.00166 32.5018H-2.99834ZM17.5005 53.0005H32.4995V47.0005H17.5005V53.0005ZM32.4995 53.0005C43.8048 53.0005 52.9982 43.8071 52.9982 32.5018H46.9982C46.9982 40.4934 40.4911 47.0005 32.4995 47.0005V53.0005ZM52.9982 32.5018C52.9982 30.3841 51.2826 28.6685 49.1649 28.6685V34.6685C47.9689 34.6685 46.9982 33.6978 46.9982 32.5018H52.9982ZM32.4995 45.334H17.5005V51.334H32.4995V45.334ZM17.5005 45.334C10.6555 45.334 5.03812 39.9384 4.68578 33.1788L-1.30609 33.4911C-0.788517 43.4204 7.44487 51.334 17.5005 51.334V45.334ZM1.68984 36.335H48.31V30.335H1.68984V36.335ZM45.314 33.1788C44.9618 39.9384 39.3444 45.334 32.4995 45.334V51.334C42.555 51.334 50.7884 43.4204 51.3059 33.4911L45.314 33.1788Z" mask="url(#path-1-inside-1)"/>
        <path fill="#628F06" d="M42.5022 11.6748C42.5022 11.614 42.5013 11.5531 42.4955 11.4606C42.3672 10.0791 41.4173 8.94413 40.1632 8.51835L41.1065 7.57509C42.7422 5.97275 42.9064 3.40957 41.4747 1.59971C39.9415 -0.263468 37.1784 -0.528507 35.316 1.00391C35.2101 1.09141 35.1077 1.18389 35.0051 1.28643L33.9802 2.32637C33.5502 1.07891 32.4128 0.135652 31.0113 0.00567192C29.1656 -0.0951091 27.6032 1.32139 27.5041 3.15625C27.5007 3.21709 27.4999 3.27793 27.4999 3.33789V4.61533C27.0099 4.33115 26.4424 4.16787 25.8367 4.16699C25.7767 4.16699 25.715 4.16865 25.6225 4.17363C23.841 4.33945 22.4703 5.87021 22.5003 7.64501V8.77831C22.0003 8.48915 21.4303 8.33417 20.8371 8.33329C20.7771 8.33329 20.7163 8.33495 20.6238 8.33993C18.8414 8.50575 17.4707 10.0365 17.5007 11.8114V24.1689C17.5007 24.6297 17.874 25.0022 18.334 25.0022H32.4997C34.3378 25.0022 35.8328 23.5073 35.8319 21.6708C35.8319 21.0641 35.6694 20.495 35.3844 20.0043H36.5102C38.3 20.0534 39.8308 18.6627 39.9983 16.8486C40.0341 16.1703 39.8641 15.5287 39.5425 14.9838C40.2908 14.9005 40.9832 14.5696 41.5232 14.0313C42.153 13.403 42.5013 12.5664 42.5022 11.6748ZM40.3464 12.8513C40.0315 13.1646 39.614 13.3372 39.1682 13.3372C39.1673 13.3372 39.1665 13.3372 39.1657 13.3372H36.6659C36.205 13.3372 35.8326 13.7105 35.8326 14.1705C35.8326 14.6304 36.205 15.0038 36.6659 15.0038L36.7576 15.0063C37.6758 15.0554 38.3825 15.8421 38.3358 16.727C38.2508 17.6453 37.4717 18.3561 36.5243 18.3369H32.4996C32.0387 18.3369 31.6663 18.7102 31.6663 19.1702C31.6663 19.6301 32.0387 20.0035 32.4996 20.0035C33.4187 20.0035 34.1662 20.7509 34.1662 21.6701C34.1662 22.5892 33.4187 23.3367 32.4996 23.3367H19.1671V11.7973C19.1512 10.8748 19.8595 10.0857 20.7453 10.0023L20.8361 9.99979C21.7536 10.0006 22.4993 10.7473 22.5002 11.6639V11.6697C22.5002 12.1297 22.8726 12.503 23.3326 12.503C23.3335 12.503 23.3335 12.503 23.3335 12.503C23.7934 12.503 24.1659 12.1306 24.1668 11.6706V11.6698V7.63085C24.1509 6.70839 24.8592 5.91933 25.745 5.83593L25.835 5.8334C26.7533 5.83506 27.4991 6.58164 27.5 7.49911V7.5041C27.5 7.96406 27.8724 8.33739 28.3324 8.33739C28.3333 8.33739 28.3333 8.33739 28.3333 8.33739C28.7932 8.33739 29.1657 7.96493 29.1666 7.50497V7.5041V3.33779L29.1691 3.24531C29.2174 2.32784 29.9857 1.62129 30.889 1.66709C31.8089 1.75293 32.5164 2.542 32.4989 3.48027V4.17188C32.4989 4.50937 32.7031 4.81435 33.0164 4.94267C33.3272 5.07099 33.6888 4.99765 33.9254 4.75605L36.1861 2.46201C36.2477 2.40118 36.3111 2.34366 36.3769 2.28955C37.5301 1.34131 39.2392 1.50625 40.1791 2.64619C41.0691 3.77275 40.9665 5.37929 39.935 6.39013L37.7435 8.58163C37.5052 8.81991 37.4335 9.17821 37.5626 9.48993C37.691 9.80077 37.9959 10.0041 38.3326 10.0041H39.0242C39.0416 10.0041 39.0541 10.0041 39.0683 10.0041C39.9783 10.0041 40.7515 10.7057 40.8331 11.5823L40.8357 11.674C40.8347 12.1189 40.6615 12.5372 40.3464 12.8513Z"/>
        <path fill="#628F06" d="M36.0774 5.24586L12.7461 28.5771L13.9245 29.7555L37.2558 6.42425L36.0774 5.24586Z"/>
        <path fill="#628F06" d="M32.4979 6.67517H30.8313V10.8416H32.4979V6.67517Z"/>
        <path fill="#628F06" d="M27.4982 10.8414H25.8316V15.8411H27.4982V10.8414Z"/>
        <path fill="#628F06" d="M22.4985 14.9995H20.8319V20.8324H22.4985V14.9995Z"/>
        <path fill="#628F06" d="M35.8309 10.0082H31.6645V11.6747H35.8309V10.0082Z"/>
        <path fill="#628F06" d="M31.6646 14.9995H26.6649V16.666H31.6646V14.9995Z"/>
        <path fill="#628F06" d="M27.4981 19.9991H21.6652V21.6657H27.4981V19.9991Z"/>
        <path fill="#628F06" d="M15.5548 3.85525C15.554 3.85359 15.5522 3.85193 15.5514 3.85027C14.3757 2.08953 11.9858 1.61121 10.226 2.78699C10.171 2.82283 10.1168 2.86111 10.0552 2.90701L9.75517 3.13533L9.46689 2.92781C7.94199 1.50545 5.54464 1.56297 4.09308 3.06951C3.38234 3.80612 3.0007 4.77604 3.01984 5.80016C3.03898 6.82428 3.4548 7.77916 4.19063 8.48912C4.40479 8.69576 4.64308 8.8774 4.89972 9.02906L5.60137 9.5774V10.0041C5.60137 12.3014 7.47041 14.1705 9.76777 14.1705C12.0651 14.1705 13.9342 12.3005 13.9333 10.0033V9.57662L14.6708 9.00084C16.2664 7.79 16.6539 5.52936 15.5548 3.85525ZM13.6541 7.68082L12.5875 8.51412C12.3858 8.67164 12.2675 8.91412 12.2675 9.17076V10.0041C12.2675 11.3823 11.1459 12.5039 9.76767 12.5039C8.38945 12.5039 7.26787 11.3823 7.26787 10.0041V9.17076C7.26787 8.91412 7.15039 8.67164 6.94786 8.51412L5.88126 7.68082C5.84962 7.65582 5.81544 7.63336 5.78048 7.61334C5.62383 7.52418 5.47882 7.41588 5.34884 7.29C4.93223 6.88834 4.69718 6.3484 4.68634 5.77009C4.6755 5.19177 4.89132 4.64353 5.29298 4.22683C5.7171 3.78689 6.28458 3.56521 6.85284 3.56521C7.39444 3.56521 7.93692 3.76599 8.35693 4.17185C8.38525 4.19851 8.41523 4.22439 8.44775 4.24763L9.28105 4.84763C9.57773 5.06179 9.98017 5.05681 10.2719 4.83513L11.1502 4.17439C11.6335 3.85105 12.2126 3.73777 12.7826 3.85027C13.3509 3.96355 13.8417 4.29108 14.1641 4.77272C14.7824 5.71764 14.5624 6.99088 13.6541 7.68082Z"/>
        <path fill="#628F06" d="M19.9987 0.83374H18.3321V2.50024H19.9987V0.83374Z"/>
        <path fill="#628F06" d="M24.9983 27.4987H23.3318V29.1652H24.9983V27.4987Z"/>
        <path fill="#628F06" d="M44.9986 5.00439V6.67099C45.9178 6.67099 46.6652 7.41845 46.6652 8.33749C46.6652 9.25654 45.9178 10.0041 44.9986 10.0041V11.6706C46.8368 11.6706 48.3317 10.1757 48.3317 8.33749C48.3317 6.49931 46.8368 5.00439 44.9986 5.00439Z"/>
        <path fill="#628F06" d="M3.33308 12.5081H1.66658V14.1747H3.33308V12.5081Z"/>
        <path fill="#628F06" d="M1.66816 9.1748H0.00166321V10.8414H1.66816V9.1748Z"/>
        <path fill="#628F06" d="M32.4994 26.6687C30.6613 26.6687 29.1663 28.1636 29.1663 30.0018H30.8329C30.8329 29.0827 31.5804 28.3352 32.4994 28.3352C33.4186 28.3352 34.166 29.0827 34.166 30.0018H35.8325C35.8325 28.1636 34.3376 26.6687 32.4994 26.6687Z"/>
        <path fill="#628F06" d="M10.0011 19.1691H9.8961C9.52442 17.7334 8.21866 16.6693 6.66798 16.6693C5.1173 16.6693 3.81066 17.7334 3.43986 19.1691H3.33488C1.4967 19.1691 0.00178528 20.664 0.00178528 22.5022C0.00178528 24.3404 1.4967 25.8353 3.33488 25.8353H10.0011C11.8393 25.8353 13.3342 24.3404 13.3342 22.5022C13.3342 20.664 11.8393 19.1691 10.0011 19.1691ZM10.0011 24.1696H3.33479C2.41565 24.1696 1.66819 23.4221 1.66819 22.5031C1.66819 21.584 2.41565 20.8365 3.33479 20.8365H4.16809C4.62805 20.8365 5.00138 20.4632 5.00138 20.0032C5.00138 19.0841 5.74884 18.3367 6.66798 18.3367C7.58712 18.3367 8.33458 19.0842 8.33458 20.0032C8.33458 20.4632 8.70792 20.8365 9.16788 20.8365H10.0012C10.9203 20.8365 11.6678 21.584 11.6678 22.5031C11.6676 23.4222 10.9201 24.1696 10.0011 24.1696Z"/>
        <path fill="#628F06" d="M8.33447 24.1688H5.00137C4.54141 24.1688 4.16808 24.5422 4.16808 25.0021V28.3352C4.16808 28.7961 4.54141 29.1685 5.00137 29.1685H8.33447C8.79443 29.1685 9.16777 28.7961 9.16777 28.3352V25.0021C9.16777 24.5422 8.79443 24.1688 8.33447 24.1688ZM7.50117 27.5019H5.83467V25.8354H7.50127V27.5019H7.50117Z"/>
        <path fill="#628F06" d="M44.1654 21.6691C42.7871 21.6691 41.6656 22.7906 41.6656 24.1689C41.6656 25.5471 42.7871 26.6687 44.1654 26.6687C45.5436 26.6687 46.6652 25.5471 46.6652 24.1689C46.6652 22.7906 45.5436 21.6691 44.1654 21.6691ZM44.1654 25.0029C43.7054 25.0029 43.3321 24.6288 43.3321 24.1696C43.3321 23.7105 43.7054 23.3364 44.1654 23.3364C44.6253 23.3364 44.9987 23.7097 44.9987 24.1696C44.9987 24.6297 44.6253 25.0029 44.1654 25.0029Z"/>
        <path fill="#628F06" d="M44.1653 18.3359C40.9497 18.3359 38.3324 20.9524 38.3324 24.1688C38.3324 27.3852 40.9497 30.0017 44.1653 30.0017C47.381 30.0017 49.9982 27.3852 49.9982 24.1688C49.9982 20.9524 47.381 18.3359 44.1653 18.3359ZM44.1653 28.336C41.868 28.336 39.9989 26.4662 39.9989 24.1696C39.9989 21.8723 41.868 20.0032 44.1653 20.0032C46.4627 20.0032 48.3317 21.8723 48.3317 24.1696C48.3317 26.467 46.4627 28.336 44.1653 28.336Z"/>
    </g>
    <defs>
        <clipPath id="clip0">
            <rect width="50" height="50" fill="white" transform="translate(0 0.000488281)"/>
        </clipPath>
    </defs>
</svg>
