<svg width="25" height="25" viewBox="0 0 25 25" fill="none" xmlns="http://www.w3.org/2000/svg">
<g clip-path="url(#clip0)">
<path d="M2.74389 20.2838H10.3478C11.0478 23.0536 13.5378 24.9958 16.3949 25.0001C19.8304 25.0001 22.6256 22.1992 22.6256 18.7635C22.6256 15.328 19.8306 12.53 16.3951 12.53C16.0147 12.5294 15.6349 12.5638 15.2608 12.6323C14.5709 10.2198 12.37 8.55332 9.86085 8.54317H8.02189C4.91969 8.55195 2.41135 11.073 2.41798 14.1752V19.911C2.41798 20.104 2.55088 20.2838 2.74389 20.2838ZM21.9262 18.7578C21.9262 21.8126 19.4498 24.2892 16.3951 24.2892C13.3401 24.2892 10.8638 21.8126 10.8638 18.7578C10.8638 15.7031 13.3401 13.2265 16.3951 13.2265C19.4485 13.23 21.9229 15.7044 21.9262 18.7578ZM3.11742 14.1773C3.10962 11.4604 5.30551 9.25119 8.02248 9.24261H9.86026C12.0458 9.25217 13.9658 10.6959 14.5815 12.7931C11.9584 13.6004 10.1674 16.0229 10.1645 18.7676C10.1657 19.0406 10.1829 19.3133 10.216 19.5843H3.11742V14.1773Z" fill="#628F06"/>
<path d="M8.93546 7.84372H8.93741V7.50513L8.94092 7.86051C11.114 7.85797 12.8743 6.09571 12.8747 3.92265C12.8737 2.87973 12.458 1.88014 11.719 1.14421C10.9799 0.408274 9.97857 -0.00350578 8.93565 7.03333e-06H8.93389C6.76786 0.000397346 5.01243 1.7568 5.01282 3.92265C5.01321 6.08868 6.76961 7.84411 8.93546 7.84372ZM6.64627 1.6442C7.25282 1.03531 8.07794 0.695153 8.93741 0.699447H8.93877C10.7186 0.699057 12.1616 2.14126 12.1622 3.92108C12.1626 5.70071 10.7202 7.14389 8.94053 7.14428H8.93565C7.62928 7.15092 6.44858 6.36776 5.94664 5.16189C5.4447 3.95582 5.72104 2.56612 6.64627 1.6442Z" fill="#628F06"/>
<path d="M12.8398 22.417C12.9325 22.4172 13.0215 22.3803 13.087 22.3146L13.3919 22.0099L14.275 22.8856C14.4112 23.021 14.6313 23.021 14.7675 22.8856L16.0277 21.6348C16.0936 21.5695 16.1309 21.4803 16.1311 21.3874C16.1313 21.2943 16.0944 21.2051 16.0286 21.1393L15.1455 20.2562L17.0099 18.3919C17.8773 19.0026 19.0678 18.8482 19.7507 18.0365C20.4337 17.2247 20.382 16.0255 19.632 15.2753C18.8818 14.5251 17.6824 14.4736 16.8707 15.1564C16.0589 15.8395 15.9045 17.0299 16.5154 17.8974L12.5923 21.8202C12.4922 21.9203 12.4623 22.0706 12.5164 22.2014C12.5707 22.3321 12.6981 22.4172 12.8396 22.4172L12.8398 22.417ZM15.2861 21.3854L14.5212 22.1446L13.8868 21.515L14.651 20.7506L15.2861 21.3854ZM18.1837 15.3824C18.9244 15.3826 19.5249 15.9831 19.5249 16.7237C19.5249 17.4643 18.9244 18.0648 18.1835 18.0648C17.4429 18.0648 16.8424 17.4643 16.8424 16.7237C16.8434 15.9835 17.4431 15.3838 18.1834 15.3828L18.1837 15.3824Z" fill="#628F06"/>
</g>
<defs>
<clipPath id="clip0">
<rect width="25" height="25" fill="white"/>
</clipPath>
</defs>
</svg>
